<svg xmlns="http://www.w3.org/2000/svg" xmlns:xlink="http://www.w3.org/1999/xlink" version="1.1" x="0px" y="0px" viewBox="0 0 100 100" style="enable-background:new 0 0 100 100;" xml:space="preserve"><style type="text/css">
	.st0{fill-rule:evenodd;clip-rule:evenodd;}
</style><path class="st0" d="M23.7,37.6c-1.1,0-3.9-2.3-4.5-3c1.4-1.9,5.2-2.5,5.3-6.4L5,39.6l0.7,2.5c12.8,0,10.6,0.9,18.1,5.9  c3.4,2.3,5.9,1.6,8.4,3.6c1.2,1,4.8,6.5,6,6.5c0.8,0,1.9-0.7,2.5-1v-2h-1v1c-2.9-0.2-4-6.1-4-9h4c2.4,0,4,1.6,4,4  c0,24-15.7,17.4-17.8,25.8l1.5,1l19.3-11.3c0-7-0.5-15.2,3.7-18.3c1.5-1.1,12.8-8.2,13.8-8.2c3.1,0,11.7,7.5,21.4,7.5h1  c5.8,0,8.5-5.2,8.5-11.5c-1.5,2.4-1.5,7.5-6.5,7.5H85c-8.9,0-25.9-21.4-34.4-21.4h-3.5C32.6,22.2,32.8,37.6,23.7,37.6L23.7,37.6z"></path></svg>